<svg width="132" height="132" viewBox="0 0 132 132" fill="none" xmlns="http://www.w3.org/2000/svg">
<path d="M75.4254 38.9431C75.4254 47.4321 68.5434 54.3142 60.0538 54.3142C51.5648 54.3142 44.6826 47.4322 44.6826 38.9431C44.6826 30.4534 51.5646 23.5714 60.0538 23.5714C68.5434 23.5714 75.4254 30.4534 75.4254 38.9431Z" fill="#7F838E"/>
<path d="M74.8068 71.0113L76.9272 70.8344L78.6059 69.4208C79.2246 68.8908 79.9307 68.449 80.6376 68.0959C78.0753 62.354 72.3333 58.4668 65.7958 58.4668H54.3112C46.0958 58.4668 39.1164 64.6506 38.1447 72.8667L36.5548 86.118C36.378 87.8846 37.4385 89.4751 39.1164 89.8283C45.7421 91.2419 52.7214 92.0369 60.0534 92.0369H62.4388C61.732 89.1216 62.4388 86.0299 64.4705 83.6445L65.8841 82.0547L66.061 79.8462C66.4141 75.0754 70.125 71.4532 74.807 71.0114L74.8068 71.0113Z" fill="#7F838E"/>
<path d="M101.398 86.7359L99.9843 85.0572C99.3656 84.2623 98.9244 83.3785 98.8356 82.4068L98.6594 80.1989C98.4825 77.9021 96.6277 76.0468 94.3305 75.87L92.1219 75.6931C91.1501 75.605 90.1784 75.2513 89.4715 74.5445L87.7929 73.1309C86.0262 71.6291 83.464 71.6291 81.6971 73.1309L80.0185 74.5445C79.2235 75.1632 78.3398 75.6044 77.3681 75.6931L75.1595 75.87C72.8628 76.0468 71.0075 77.9017 70.8306 80.1989L70.6538 82.4074C70.5656 83.3792 70.2119 84.3509 69.5051 85.0578L68.1815 86.7359C66.6797 88.5025 66.6797 91.0648 68.1815 92.8316L69.5951 94.5102C70.2138 95.3052 70.655 96.1889 70.7437 97.1607L70.9206 99.3692C71.0974 101.666 72.9523 103.521 75.2495 103.698L77.458 103.875C78.4298 103.963 79.4015 104.317 80.1084 105.024L81.7871 106.437C83.5538 107.939 86.116 107.939 87.8828 106.437L89.5615 105.024C90.3564 104.405 91.2401 103.964 92.2119 103.875L94.4204 103.698C96.7172 103.521 98.5725 101.666 98.7493 99.3692L98.9262 97.1607C99.0143 96.1889 99.368 95.2171 100.075 94.5102L101.488 92.8316C102.9 91.0649 102.9 88.5032 101.398 86.7359ZM86.0262 96.9837V98.8392C86.0262 99.016 85.8494 99.1923 85.6731 99.1923H83.9065C83.7296 99.1923 83.5534 99.0154 83.5534 98.8392V97.0725C81.6979 96.9844 80.2849 95.5707 80.108 93.7153C80.108 93.5385 80.2849 93.3622 80.4611 93.3622H82.2278C82.4047 93.3622 82.4928 93.4504 82.5809 93.6272C82.669 94.1572 83.1996 94.599 83.8177 94.599H85.4075C86.2912 94.599 87.1742 93.8922 87.263 93.0092C87.3511 91.9492 86.5562 91.0656 85.4963 91.0656H84.3477C82.1391 91.0656 80.1074 89.4758 79.9306 87.2673C79.6656 84.9705 81.3442 82.9384 83.5528 82.6733V80.9066C83.5528 80.7298 83.7296 80.5535 83.9059 80.5535H85.6725C85.8494 80.5535 86.0256 80.7304 86.0256 80.9066V82.6733C87.8811 82.7614 89.2941 84.1751 89.471 86.0305C89.471 86.2073 89.2941 86.3836 89.1179 86.3836H87.3512C87.1743 86.3836 87.0862 86.2955 86.9981 86.1186C86.91 85.5886 86.3794 85.1468 85.7613 85.1468H84.1715C83.1997 85.1468 82.4048 85.8536 82.316 86.7366C82.2279 87.7966 83.0228 88.6802 84.0827 88.6802L85.4082 88.6795C87.8817 88.6795 89.9135 90.7999 89.6484 93.3617C89.4716 95.129 87.8817 96.6308 86.0263 96.9838L86.0262 96.9837Z" fill="#E3BC58"/>
</svg>
