<svg width="132" height="132" viewBox="0 0 132 132" fill="none" xmlns="http://www.w3.org/2000/svg">
<path d="M81.3243 38.9455C81.3243 47.4358 74.4412 54.319 65.9502 54.319C57.4599 54.319 50.5767 47.436 50.5767 38.9455C50.5767 30.4545 57.4597 23.5714 65.9502 23.5714C74.4412 23.5714 81.3243 30.4545 81.3243 38.9455Z" fill="#7F838E"/>
<path d="M80.7059 71.0187L82.8266 70.8418L84.5055 69.4279C85.1243 68.8979 85.8306 68.456 86.5375 68.1029C83.9749 62.3601 78.2319 58.4723 71.6935 58.4723H60.2071C51.9903 58.4723 45.0099 64.657 44.038 72.8744L42.4479 86.1277C42.271 87.8947 43.3317 89.4854 45.0099 89.8387C51.6366 91.2525 58.617 92.0476 65.9502 92.0476H68.3359C67.629 89.1318 68.3359 86.0397 70.368 83.6539L71.7818 82.0638L71.9587 79.855C72.3118 75.0834 76.0234 71.4607 80.7061 71.0188L80.7059 71.0187Z" fill="#7F838E"/>
<path fill-rule="evenodd" clip-rule="evenodd" d="M105.877 85.0694L107.29 86.7483C108.792 88.5159 108.792 91.078 107.381 92.845L105.967 94.5239C105.26 95.2309 104.907 96.2028 104.818 97.1747L104.642 99.3836C104.465 101.681 102.609 103.536 100.312 103.713L98.103 103.89C97.1311 103.979 96.2473 104.42 95.4522 105.039L93.7733 106.453C92.0062 107.955 89.4436 107.955 87.6766 106.453L85.9977 105.039C85.2907 104.332 84.3188 103.978 83.3469 103.89L81.138 103.713C78.8404 103.536 76.9853 101.681 76.8084 99.3836L76.6315 97.1747C76.5428 96.2028 76.1015 95.319 75.4827 94.5239L74.0689 92.845C72.5669 91.0779 72.5669 88.5152 74.0689 86.7483L75.3927 85.07C76.0996 84.363 76.4534 83.3911 76.5415 82.4192L76.7184 80.2103C76.8953 77.9127 78.7509 76.0576 81.048 75.8807L83.2569 75.7038C84.2288 75.6151 85.1127 75.1738 85.9077 74.555L87.5866 73.1412C89.3537 71.6392 91.9164 71.6392 93.6833 73.1412L95.3622 74.555C96.0692 75.2619 97.0411 75.6157 98.0131 75.7038L100.222 75.8807C102.52 76.0576 104.375 77.9132 104.552 80.2103L104.728 82.4185C104.817 83.3905 105.258 84.2743 105.877 85.0694ZM81.4471 87.9602C81.3401 87.9716 81.2537 88.0527 81.2357 88.1588L81.2358 88.1589C81.044 89.2827 81.0522 90.4318 81.2598 91.5528C81.2794 91.6614 81.3706 91.7427 81.4808 91.7498L83.5161 91.8811C83.6498 92.3955 83.8388 92.8937 84.0797 93.3675L82.7058 94.7656C82.6263 94.8465 82.6142 94.9721 82.677 95.0668C83.3058 96.0123 84.0973 96.8387 85.0149 97.5077C85.1007 97.5725 85.2191 97.5725 85.3047 97.5077L86.8276 96.3256C87.346 96.6428 87.9016 96.8945 88.4818 97.0753L88.6884 98.9972C88.6998 99.1021 88.7785 99.1873 88.8821 99.207C90.051 99.4288 91.2507 99.4331 92.4211 99.2197C92.5269 99.2001 92.6069 99.1125 92.6164 99.0052L92.791 97.112C93.3634 96.9423 93.913 96.7034 94.4277 96.4009L96.021 97.5573C96.1051 97.6182 96.2187 97.6182 96.3028 97.5573C97.2288 96.8865 98.0278 96.0555 98.6615 95.1036C98.7221 95.0126 98.7135 94.8921 98.6408 94.8105L97.3068 93.3226C97.5117 92.9066 97.6768 92.4723 97.8001 92.0252L99.8818 91.7994C99.9866 91.7879 100.072 91.7093 100.092 91.6057C100.305 90.4855 100.318 89.3367 100.132 88.2118C100.115 88.1087 100.033 88.0284 99.9299 88.0131L97.72 87.7168C97.5533 87.2073 97.3316 86.7176 97.0586 86.2562L98.4678 84.5136C98.5371 84.4293 98.5412 84.3091 98.4774 84.2204C97.8416 83.3327 97.059 82.5597 96.1634 81.9349C96.0732 81.8722 95.9518 81.8787 95.8689 81.951L94.125 83.4614C93.7292 83.2533 93.3155 83.0818 92.8887 82.9488L92.5188 80.5495C92.5031 80.4474 92.4237 80.3668 92.3219 80.3493C91.2948 80.1752 90.2465 80.167 89.2169 80.3253C89.1111 80.3416 89.0289 80.4258 89.0152 80.5319L88.706 82.8815C88.298 82.9945 87.9005 83.1423 87.5179 83.3235L85.6539 81.834C85.5723 81.7685 85.4576 81.7633 85.3704 81.8212C84.4266 82.449 83.6015 83.2391 82.9332 84.1548C82.8683 84.2444 82.8728 84.3667 82.9443 84.4511L84.3728 86.1376C84.0656 86.6361 83.8189 87.1695 83.6378 87.7264L81.4471 87.9602ZM95.0069 89.8648C95.0069 92.2529 93.0713 94.189 90.6835 94.189L90.6837 94.1892C89.537 94.1892 88.4372 93.7336 87.6264 92.9226C86.8155 92.1116 86.36 91.0117 86.36 89.8648C86.36 87.4767 88.2958 85.5406 90.6835 85.5406C93.0711 85.5406 95.0069 87.4767 95.0069 89.8648Z" fill="#5877E4"/>
</svg>
