<svg width="172" height="29" viewBox="0 0 172 29" fill="none" xmlns="http://www.w3.org/2000/svg">
<path d="M53.7539 10.3546H50.0428C49.937 9.74601 49.7418 9.20687 49.4574 8.7372C49.1729 8.26092 48.819 7.8574 48.3956 7.52664C47.9723 7.19589 47.4894 6.94782 46.9469 6.78244C46.4111 6.61045 45.8323 6.52446 45.2105 6.52446C44.1058 6.52446 43.1267 6.80229 42.2734 7.35796C41.42 7.90701 40.7519 8.71405 40.269 9.77908C39.7861 10.8375 39.5447 12.1307 39.5447 13.6588C39.5447 15.2134 39.7861 16.5232 40.269 17.5882C40.7585 18.6466 41.4266 19.447 42.2734 19.9895C43.1267 20.5253 44.1025 20.7932 45.2006 20.7932C45.8091 20.7932 46.378 20.7138 46.9073 20.5551C47.4431 20.3897 47.9227 20.1482 48.346 19.8307C48.776 19.5132 49.1365 19.1229 49.4276 18.6598C49.7253 18.1968 49.9303 17.6676 50.0428 17.0722L53.7539 17.0921C53.615 18.0579 53.314 18.9641 52.8509 19.8109C52.3945 20.6576 51.7958 21.4051 51.0549 22.0534C50.314 22.6951 49.4474 23.1978 48.4552 23.5616C47.4629 23.9188 46.3615 24.0975 45.1509 24.0975C43.3649 24.0975 41.7706 23.684 40.3682 22.8571C38.9658 22.0302 37.8611 20.8362 37.0541 19.275C36.247 17.7139 35.8435 15.8418 35.8435 13.6588C35.8435 11.4692 36.2503 9.59717 37.064 8.04262C37.8776 6.48146 38.9857 5.28743 40.3881 4.46054C41.7905 3.63366 43.3781 3.22021 45.1509 3.22021C46.2821 3.22021 47.3339 3.37898 48.3063 3.6965C49.2788 4.01403 50.1453 4.48039 50.9061 5.09559C51.6668 5.70418 52.2919 6.45169 52.7815 7.33811C53.2776 8.21792 53.6017 9.22341 53.7539 10.3546Z" fill="#F0F1F4"/>
<path d="M62.2174 24.1173C60.729 24.1173 59.4391 23.7899 58.3476 23.135C57.2561 22.4801 56.4093 21.5639 55.8074 20.3864C55.212 19.2089 54.9143 17.833 54.9143 16.2586C54.9143 14.6842 55.212 13.3049 55.8074 12.1208C56.4093 10.9367 57.2561 10.0172 58.3476 9.36233C59.4391 8.70744 60.729 8.37999 62.2174 8.37999C63.7058 8.37999 64.9957 8.70744 66.0872 9.36233C67.1787 10.0172 68.0221 10.9367 68.6175 12.1208C69.2195 13.3049 69.5205 14.6842 69.5205 16.2586C69.5205 17.833 69.2195 19.2089 68.6175 20.3864C68.0221 21.5639 67.1787 22.4801 66.0872 23.135C64.9957 23.7899 63.7058 24.1173 62.2174 24.1173ZM62.2372 21.2397C63.0443 21.2397 63.719 21.0181 64.2615 20.5749C64.8039 20.1251 65.2074 19.5231 65.472 18.769C65.7432 18.0149 65.8788 17.1748 65.8788 16.2486C65.8788 15.3159 65.7432 14.4725 65.472 13.7184C65.2074 12.9576 64.8039 12.3524 64.2615 11.9025C63.719 11.4527 63.0443 11.2278 62.2372 11.2278C61.4103 11.2278 60.7224 11.4527 60.1733 11.9025C59.6309 12.3524 59.2241 12.9576 58.9528 13.7184C58.6882 14.4725 58.5559 15.3159 58.5559 16.2486C58.5559 17.1748 58.6882 18.0149 58.9528 18.769C59.2241 19.5231 59.6309 20.1251 60.1733 20.5749C60.7224 21.0181 61.4103 21.2397 62.2372 21.2397Z" fill="#F0F1F4"/>
<path d="M74.7641 14.8892V23.8196H71.1721V8.57844H74.6053V11.1683H74.7839C75.1345 10.3149 75.6935 9.63686 76.4608 9.13411C77.2348 8.63136 78.1907 8.37999 79.3285 8.37999C80.3803 8.37999 81.2965 8.6049 82.0771 9.05473C82.8643 9.50455 83.4728 10.1561 83.9028 11.0095C84.3394 11.8628 84.5544 12.8981 84.5478 14.1153V23.8196H80.9558V14.6709C80.9558 13.6522 80.6912 12.8551 80.162 12.2796C79.6394 11.7041 78.915 11.4163 77.9889 11.4163C77.3605 11.4163 76.8015 11.5552 76.312 11.8331C75.8291 12.1043 75.4487 12.4979 75.1709 13.0139C74.8997 13.5298 74.7641 14.155 74.7641 14.8892Z" fill="#F0F1F4"/>
<path d="M94.4129 8.57844V11.3568H85.6512V8.57844H94.4129ZM87.8143 4.92691H91.4063V19.2354C91.4063 19.7183 91.4791 20.0887 91.6246 20.3467C91.7768 20.5981 91.9752 20.7701 92.22 20.8627C92.4647 20.9553 92.736 21.0016 93.0336 21.0016C93.2586 21.0016 93.4636 20.9851 93.6488 20.952C93.8407 20.9189 93.9862 20.8891 94.0854 20.8627L94.6907 23.6708C94.4989 23.7369 94.2244 23.8097 93.8671 23.8891C93.5165 23.9685 93.0866 24.0148 92.5772 24.028C91.6775 24.0545 90.8672 23.9188 90.1462 23.6212C89.4251 23.3169 88.8529 22.8472 88.4295 22.2121C88.0128 21.5771 87.8077 20.7833 87.8143 19.8307V4.92691Z" fill="#F0F1F4"/>
<path d="M96.0199 23.8196V8.57844H99.5027V11.1186H99.6615C99.9393 10.2388 100.416 9.56078 101.09 9.0845C101.772 8.60159 102.549 8.36014 103.422 8.36014C103.621 8.36014 103.842 8.37007 104.087 8.38991C104.338 8.40314 104.547 8.42629 104.712 8.45937V11.7636C104.56 11.7107 104.318 11.6644 103.988 11.6247C103.664 11.5784 103.349 11.5552 103.045 11.5552C102.39 11.5552 101.801 11.6975 101.279 11.9819C100.763 12.2597 100.356 12.6467 100.058 13.1429C99.7607 13.639 99.6119 14.2112 99.6119 14.8595V23.8196H96.0199Z" fill="#F0F1F4"/>
<path d="M109.814 24.1272C108.849 24.1272 107.979 23.9552 107.205 23.6112C106.437 23.2606 105.829 22.7447 105.379 22.0633C104.936 21.382 104.714 20.5418 104.714 19.543C104.714 18.683 104.873 17.9719 105.19 17.4096C105.508 16.8473 105.941 16.3975 106.49 16.0601C107.039 15.7227 107.658 15.4681 108.346 15.2961C109.04 15.1175 109.758 14.9885 110.499 14.9091C111.392 14.8165 112.116 14.7338 112.672 14.661C113.228 14.5816 113.631 14.4626 113.883 14.3038C114.141 14.1384 114.27 13.8837 114.27 13.5398V13.4802C114.27 12.7327 114.048 12.1539 113.605 11.7438C113.162 11.3336 112.523 11.1286 111.69 11.1286C110.81 11.1286 110.112 11.3204 109.596 11.7041C109.087 12.0877 108.743 12.5409 108.564 13.0635L105.21 12.5872C105.475 11.6611 105.911 10.8871 106.52 10.2653C107.129 9.63686 107.873 9.16718 108.753 8.85628C109.632 8.53875 110.605 8.37999 111.67 8.37999C112.404 8.37999 113.135 8.46598 113.863 8.63798C114.59 8.80997 115.255 9.09442 115.857 9.49132C116.459 9.88161 116.942 10.4141 117.306 11.0889C117.676 11.7636 117.862 12.607 117.862 13.6191V23.8196H114.409V21.7259H114.289C114.071 22.1493 113.764 22.5462 113.367 22.9167C112.976 23.2805 112.484 23.5749 111.888 23.7998C111.299 24.0181 110.608 24.1272 109.814 24.1272ZM110.747 21.4878C111.468 21.4878 112.093 21.3456 112.622 21.0611C113.152 20.7701 113.558 20.3864 113.843 19.9101C114.134 19.4338 114.28 18.9145 114.28 18.3522V16.5562C114.167 16.6489 113.975 16.7349 113.704 16.8142C113.439 16.8936 113.142 16.9631 112.811 17.0226C112.48 17.0821 112.153 17.1351 111.829 17.1814C111.504 17.2277 111.223 17.2674 110.985 17.3004C110.449 17.3732 109.97 17.4923 109.546 17.6577C109.123 17.823 108.789 18.0546 108.544 18.3522C108.299 18.6433 108.177 19.0204 108.177 19.4834C108.177 20.1449 108.419 20.6444 108.901 20.9817C109.384 21.3191 110 21.4878 110.747 21.4878Z" fill="#F0F1F4"/>
<path d="M126.724 24.1173C125.203 24.1173 123.897 23.7832 122.805 23.1151C121.72 22.447 120.883 21.5242 120.295 20.3467C119.712 19.1626 119.421 17.7999 119.421 16.2586C119.421 14.7106 119.719 13.3446 120.314 12.1605C120.91 10.9698 121.75 10.0437 122.835 9.38217C123.926 8.71405 125.216 8.37999 126.705 8.37999C127.942 8.37999 129.036 8.60821 129.989 9.06465C130.948 9.51448 131.712 10.1528 132.281 10.9797C132.85 11.8 133.174 12.7592 133.254 13.8573H129.82C129.681 13.123 129.351 12.5111 128.828 12.0216C128.312 11.5255 127.621 11.2774 126.754 11.2774C126.02 11.2774 125.375 11.4759 124.819 11.8728C124.264 12.263 123.83 12.8253 123.519 13.5596C123.215 14.2939 123.063 15.1737 123.063 16.199C123.063 17.2376 123.215 18.1306 123.519 18.8781C123.824 19.619 124.25 20.1912 124.799 20.5948C125.355 20.9917 126.007 21.1901 126.754 21.1901C127.283 21.1901 127.756 21.0909 128.173 20.8924C128.597 20.6874 128.95 20.393 129.235 20.0093C129.519 19.6256 129.715 19.1593 129.82 18.6102H133.254C133.168 19.6885 132.85 20.6444 132.301 21.4779C131.752 22.3048 131.004 22.953 130.058 23.4227C129.113 23.8858 128.001 24.1173 126.724 24.1173Z" fill="#F0F1F4"/>
<path d="M142.417 8.57844V11.3568H133.655V8.57844H142.417ZM135.818 4.92691H139.41V19.2354C139.41 19.7183 139.483 20.0887 139.628 20.3467C139.781 20.5981 139.979 20.7701 140.224 20.8627C140.468 20.9553 140.74 21.0016 141.037 21.0016C141.262 21.0016 141.467 20.9851 141.653 20.952C141.844 20.9189 141.99 20.8891 142.089 20.8627L142.694 23.6708C142.503 23.7369 142.228 23.8097 141.871 23.8891C141.52 23.9685 141.09 24.0148 140.581 24.028C139.681 24.0545 138.871 23.9188 138.15 23.6212C137.429 23.3169 136.857 22.8472 136.433 22.2121C136.017 21.5771 135.811 20.7833 135.818 19.8307V4.92691Z" fill="#F0F1F4"/>
<path d="M153.738 17.4096V8.57844H157.33V23.8196H153.847V21.1107H153.688C153.344 21.9641 152.779 22.662 151.992 23.2044C151.211 23.7469 150.248 24.0181 149.104 24.0181C148.105 24.0181 147.222 23.7965 146.455 23.3533C145.694 22.9034 145.099 22.2518 144.669 21.3985C144.239 20.5385 144.024 19.5 144.024 18.2828V8.57844H147.616V17.7271C147.616 18.6929 147.88 19.4603 148.409 20.0292C148.939 20.5981 149.633 20.8825 150.493 20.8825C151.022 20.8825 151.535 20.7535 152.031 20.4955C152.527 20.2375 152.934 19.8539 153.252 19.3445C153.576 18.8285 153.738 18.1836 153.738 17.4096Z" fill="#F0F1F4"/>
<path d="M171.673 12.607L168.398 12.9642C168.305 12.6335 168.143 12.3226 167.912 12.0315C167.687 11.7405 167.383 11.5056 166.999 11.327C166.615 11.1484 166.146 11.0591 165.59 11.0591C164.842 11.0591 164.214 11.2212 163.705 11.5453C163.202 11.8695 162.954 12.2895 162.96 12.8055C162.954 13.2487 163.116 13.6092 163.447 13.8871C163.784 14.1649 164.34 14.3931 165.114 14.5717L167.713 15.1274C169.156 15.4383 170.227 15.9311 170.928 16.6059C171.636 17.2806 171.993 18.1637 172 19.2552C171.993 20.2144 171.712 21.0611 171.157 21.7954C170.608 22.5231 169.843 23.092 168.864 23.5021C167.885 23.9122 166.761 24.1173 165.491 24.1173C163.625 24.1173 162.124 23.727 160.986 22.9464C159.848 22.1592 159.17 21.0644 158.952 19.662L162.454 19.3247C162.613 20.0126 162.951 20.5319 163.467 20.8825C163.982 21.2331 164.654 21.4084 165.481 21.4084C166.334 21.4084 167.019 21.2331 167.535 20.8825C168.057 20.5319 168.319 20.0986 168.319 19.5827C168.319 19.1461 168.15 18.7855 167.813 18.5011C167.482 18.2166 166.966 17.9983 166.265 17.8462L163.665 17.3004C162.203 16.9961 161.121 16.4835 160.42 15.7624C159.719 15.0348 159.372 14.1153 159.378 13.0039C159.372 12.0646 159.626 11.2509 160.142 10.563C160.665 9.86838 161.389 9.33256 162.315 8.9555C163.248 8.57183 164.323 8.37999 165.54 8.37999C167.326 8.37999 168.732 8.76036 169.757 9.52109C170.789 10.2818 171.428 11.3105 171.673 12.607Z" fill="#F0F1F4"/>
<path d="M0 7.22915C0 3.2366 3.2366 0 7.22915 0H21.1711C25.1636 0 28.4002 3.2366 28.4002 7.22915V21.1711C28.4002 25.1636 25.1636 28.4002 21.1711 28.4002H7.22915C3.2366 28.4002 0 25.1636 0 21.1711V7.22915Z" fill="#F0F1F4"/>
<path d="M25.2992 13.2124C25.3376 13.6468 24.9828 14.0055 24.5459 14.0055H19.94C19.8636 14.0055 19.7967 13.9568 19.7635 13.888C19.5992 13.548 19.2749 13.2996 18.8881 13.2401C18.7896 13.225 18.7084 13.1458 18.7084 13.0464V9.33104C18.7084 8.90076 18.3589 8.55196 17.9279 8.55196H10.5131C10.082 8.55196 9.73256 8.90076 9.73256 9.33104V19.4591C9.73256 19.8894 10.082 20.2382 10.5131 20.2382H17.9279C18.3589 20.2382 18.7084 19.8894 18.7084 19.4591V15.7437C18.7084 15.6443 18.7896 15.5651 18.8881 15.55C19.2749 15.4905 19.5992 15.2421 19.7635 14.9021C19.7967 14.8334 19.8636 14.7846 19.94 14.7846H24.5045C24.952 14.7846 25.3107 15.1603 25.2547 15.6035C24.5636 21.0725 19.8869 25.3022 14.2205 25.3022C8.07785 25.3022 3.09827 20.3317 3.09827 14.2003C3.09827 8.06888 8.07785 3.09839 14.2205 3.09839C20.0295 3.09839 24.7985 7.54375 25.2992 13.2124Z" fill="#1E2129"/>
<path fill-rule="evenodd" clip-rule="evenodd" d="M19.94 13.9023H24.5459C24.9273 13.9023 25.229 13.5905 25.1964 13.2215C24.7003 7.60582 19.9757 3.20166 14.2205 3.20166C8.1347 3.20166 3.20154 8.1261 3.20154 14.2003C3.20154 20.2745 8.1347 25.1989 14.2205 25.1989C19.8344 25.1989 24.4676 21.0084 25.1522 15.5906C25.1998 15.2143 24.8952 14.8879 24.5045 14.8879H19.94C19.9093 14.8879 19.8753 14.9081 19.8565 14.947C19.6778 15.3169 19.3249 15.5873 18.9037 15.6521C18.8457 15.661 18.8116 15.7047 18.8116 15.7437V19.4591C18.8116 19.9466 18.4158 20.3414 17.9279 20.3414H10.5131C10.0251 20.3414 9.62929 19.9466 9.62929 19.4591V9.33104C9.62929 8.84355 10.0251 8.44868 10.5131 8.44868H17.9279C18.4158 8.44868 18.8116 8.84355 18.8116 9.33104V13.0464C18.8116 13.0854 18.8457 13.1291 18.9037 13.138C19.3249 13.2028 19.6778 13.4732 19.8565 13.8431C19.8753 13.882 19.9093 13.9023 19.94 13.9023ZM24.5459 14.0055C24.9828 14.0055 25.3376 13.6468 25.2992 13.2124C24.7985 7.54375 20.0295 3.09839 14.2205 3.09839C8.07785 3.09839 3.09827 8.06888 3.09827 14.2003C3.09827 20.3317 8.07785 25.3022 14.2205 25.3022C19.8869 25.3022 24.5637 21.0725 25.2547 15.6035C25.3107 15.1603 24.952 14.7846 24.5045 14.7846H19.94C19.8636 14.7846 19.7967 14.8334 19.7635 14.9021C19.5992 15.2421 19.2749 15.4905 18.8881 15.55C18.7896 15.5651 18.7084 15.6443 18.7084 15.7437V19.4591C18.7084 19.8894 18.3589 20.2382 17.9279 20.2382H10.5131C10.082 20.2382 9.73256 19.8894 9.73256 19.4591V9.33104C9.73256 8.90076 10.082 8.55196 10.5131 8.55196H17.9279C18.3589 8.55196 18.7084 8.90076 18.7084 9.33104V13.0464C18.7084 13.1458 18.7896 13.225 18.8881 13.2401C19.2749 13.2996 19.5992 13.548 19.7635 13.888C19.7967 13.9568 19.8636 14.0055 19.94 14.0055H24.5459Z" fill="white"/>
</svg>
