<svg xmlns="http://www.w3.org/2000/svg" width="33" height="33" viewBox="0 0 33 33">
  <path
    class="logo_theming"
    d="M31.5112 15.0887C31.5628 15.673 31.0856 16.1555 30.498 16.1555H24.3029C24.2001 16.1555 24.1101 16.0899 24.0654 15.9975C23.8445 15.5402 23.4082 15.206 22.8879 15.126C22.7555 15.1057 22.6462 14.9992 22.6462 14.8655V9.86814C22.6462 9.28941 22.1762 8.82025 21.5964 8.82025H11.6232C11.0434 8.82025 10.5734 9.28941 10.5734 9.86814V23.4908C10.5734 24.0695 11.0434 24.5387 11.6232 24.5387H21.5964C22.1762 24.5387 22.6462 24.0695 22.6462 23.4908V18.4935C22.6462 18.3597 22.7555 18.2533 22.8879 18.2329C23.4082 18.1529 23.8445 17.8187 24.0654 17.3614C24.1101 17.269 24.2001 17.2034 24.3029 17.2034H30.4422C31.0441 17.2034 31.5266 17.7087 31.4513 18.3049C30.5218 25.6608 24.2314 31.35 16.6098 31.35C8.34775 31.35 1.65002 24.6645 1.65002 16.4175C1.65002 8.17049 8.34775 1.48499 16.6098 1.48499C24.4233 1.48499 30.8376 7.46417 31.5112 15.0887Z"
    fill="white"
  />
  <path 
    class="logo_theming" 
    fill-rule="evenodd"
    clip-rule="evenodd"
    d="M24.3029 16.0166H30.498C31.0109 16.0166 31.4167 15.5973 31.3728 15.1009C30.7056 7.54766 24.3509 1.62389 16.6098 1.62389C8.42423 1.62389 1.78893 8.24745 1.78893 16.4175C1.78893 24.5875 8.42423 31.2111 16.6098 31.2111C24.1607 31.2111 30.3927 25.5747 31.3135 18.2874C31.3774 17.7813 30.9677 17.3423 30.4422 17.3423H24.3029C24.2616 17.3423 24.2158 17.3695 24.1905 17.4219C23.9501 17.9194 23.4755 18.2831 22.909 18.3702C22.831 18.3822 22.7851 18.441 22.7851 18.4935V23.4908C22.7851 24.1465 22.2527 24.6776 21.5964 24.6776H11.6232C10.967 24.6776 10.4345 24.1465 10.4345 23.4908V9.86814C10.4345 9.21245 10.967 8.68134 11.6232 8.68134H21.5964C22.2527 8.68134 22.7851 9.21245 22.7851 9.86814V14.8655C22.7851 14.9179 22.831 14.9767 22.909 14.9887C23.4755 15.0758 23.9501 15.4395 24.1905 15.9371C24.2158 15.9894 24.2616 16.0166 24.3029 16.0166ZM30.498 16.1555C31.0856 16.1555 31.5628 15.673 31.5112 15.0887C30.8376 7.46417 24.4233 1.48499 16.6098 1.48499C8.34775 1.48499 1.65002 8.17049 1.65002 16.4175C1.65002 24.6645 8.34775 31.35 16.6098 31.35C24.2314 31.35 30.5218 25.6608 31.4513 18.3049C31.5266 17.7087 31.0441 17.2034 30.4422 17.2034H24.3029C24.2001 17.2034 24.1101 17.269 24.0654 17.3614C23.8445 17.8187 23.4082 18.1529 22.8879 18.2329C22.7555 18.2533 22.6462 18.3597 22.6462 18.4935V23.4908C22.6462 24.0695 22.1762 24.5387 21.5964 24.5387H11.6232C11.0434 24.5387 10.5734 24.0695 10.5734 23.4908V9.86814C10.5734 9.28941 11.0434 8.82025 11.6232 8.82025H21.5964C22.1762 8.82025 22.6462 9.28941 22.6462 9.86814V14.8655C22.6462 14.9992 22.7555 15.1057 22.8879 15.126C23.4082 15.206 23.8445 15.5402 24.0654 15.9975C24.1101 16.0899 24.2001 16.1555 24.3029 16.1555H30.498Z"
    fill="white"
  />
</svg>